<svg xmlns="http://www.w3.org/2000/svg" xml:space="preserve" width="100" height="100" style="shape-rendering:geometricPrecision;text-rendering:geometricPrecision;image-rendering:optimizeQuality;fill-rule:evenodd;clip-rule:evenodd" viewBox="0 0 100 100"><defs><clipPath id="id0"><path d="M50 0c27.614 0 50 22.386 50 50 0 27.614 -22.386 50 -50 50 -27.614 0 -50 -22.386 -50 -50 0 -27.614 22.386 -50 50 -50z"/></clipPath><style>.fil9{fill:#253035}.fil16{fill:#37474f}.fil1{fill:#e57373}</style></defs><g id="Layer_x0020_1"><path d="M50 0c27.614 0 50 22.386 50 50 0 27.614 -22.386 50 -50 50 -27.614 0 -50 -22.386 -50 -50 0 -27.614 22.386 -50 50 -50z" style="fill:#ef9a9a"/><g style="clip-path:url(#id0)"><g id="_289371512"><path id="_2926826961" class="fil1" d="M77.127 35.877 132.59 91.34l0.055 0.073 0.048 0.079 0.04 0.083 0.032 0.087 0.023 0.091 0.014 0.094 0.005 0.097L77.344 36.481l-0.005 -0.097 -0.014 -0.094 -0.023 -0.091 -0.032 -0.087 -0.04 -0.083 -0.047 -0.078z"/><path id="_292682528" class="fil1" d="m68.013 28.78 55.463 55.463 0.054 0.073 0.048 0.078 0.04 0.083 0.032 0.087 0.023 0.091 0.015 0.094 0.005 0.097L68.229 29.384l-0.005 -0.097 -0.014 -0.094 -0.023 -0.091 -0.032 -0.087 -0.04 -0.083 -0.048 -0.078z"/><path id="_292683128" class="fil1" d="M77.344 45.026 132.807 100.489v1.898L77.344 46.925z"/><path id="_292683176" class="fil1" d="M77.344 46.925 132.807 102.388v23.692L77.344 70.616z"/><path id="_292683896" class="fil1" d="m77.344 70.616 55.463 55.463 -0.005 0.097 -0.014 0.095 -0.023 0.091 -0.032 0.087 -0.04 0.083 -0.048 0.079 -0.055 0.073 -0.061 0.067 -0.067 0.061 -0.073 0.055 -0.078 0.047 -0.083 0.04 -0.087 0.032 -0.091 0.023 -0.094 0.014 -0.097 0.005 -55.463 -55.463 0.097 -0.005 0.095 -0.015 0.091 -0.023 0.087 -0.032 0.083 -0.04 0.079 -0.047 0.073 -0.055 0.067 -0.062 0.061 -0.067 0.055 -0.073 0.047 -0.079 0.04 -0.083 0.032 -0.087 0.023 -0.091 0.014 -0.094z"/><path id="_292683272" class="fil1" d="M31.771 64.468 87.234 119.932h-8.165L23.606 64.468z"/><path id="_292683296" class="fil1" d="M32.72 71.566 88.183 127.029l-0.097 -0.005 -0.094 -0.014 -0.091 -0.023 -0.087 -0.032 -0.083 -0.04 -0.078 -0.047 -0.073 -0.055L32.116 71.349l0.073 0.055 0.078 0.047 0.083 0.04 0.087 0.032 0.091 0.023 0.094 0.015z"/><path id="_292683320" class="fil1" d="m76.395 71.566 55.463 55.463h-43.674L32.72 71.566z"/><path id="_292683344" class="fil1" d="M23.606 64.468 79.069 119.932l-0.097 -0.005 -0.094 -0.015 -0.091 -0.023 -0.087 -0.032 -0.083 -0.04 -0.079 -0.047 -0.073 -0.055L23.002 64.251l0.073 0.055 0.078 0.048 0.083 0.04 0.087 0.032 0.091 0.023 0.094 0.014z"/><path id="_292683656" class="fil1" d="M68.229 29.384 123.692 84.847v6.148L68.229 35.532z"/><path id="_292683560" class="fil1" d="M77.344 36.481 132.807 91.944v8.545L77.344 45.026z"/><path id="_289371584" class="fil1" d="M68.229 35.532h8.165c0.524 0 0.949 0.425 0.949 0.95v34.135c0 0.524 -0.425 0.949 -0.949 0.949H32.72c-0.524 0 -0.949 -0.425 -0.949 -0.949v-6.148H23.605c-0.524 0 -0.949 -0.425 -0.949 -0.949V29.384c0 -0.524 0.425 -0.95 0.949 -0.95h43.674c0.524 0 0.949 0.425 0.949 0.95v6.148z"/></g></g><path d="M50 0c27.614 0 50 22.386 50 50 0 27.614 -22.386 50 -50 50 -27.614 0 -50 -22.386 -50 -50 0 -27.614 22.386 -50 50 -50z" style="fill:none"/><path d="M68.229 37.929v25.59c0 0.524 -0.425 0.949 -0.95 0.949H23.605c-0.524 0 -0.949 -0.425 -0.949 -0.949V37.929h45.573z" style="fill:#555a61"/><path style="fill:#494f56" d="M68.229 37.929v1.899H22.656v-1.899z"/><path d="M23.606 28.434h43.674c0.524 0 0.95 0.425 0.95 0.95v8.545H22.656v-8.545c0 -0.524 0.425 -0.949 0.949 -0.949z" style="fill:#2a3541;fill-rule:nonzero"/><path style="fill:#873636;fill-rule:nonzero" d="M60.638 31.234v3.798h3.798v-3.798z"/><path style="fill:#8e652d;fill-rule:nonzero" d="M47.337 35.032h3.798v-3.798h-3.798z"/><path style="fill:#49692e;fill-rule:nonzero" d="M53.978 31.234v3.798h3.797v-3.798z"/><path class="fil9" d="M51.582 56.441v-1.37h9.979v1.37zm-10.243 -1.893 6.433 -3.367 -6.433 -3.337v-1.889l8.123 4.329v1.773l-8.123 4.383zm-3.891 1.893 -8.123 -4.383v-1.773l8.123 -4.329v1.889l-6.441 3.337 6.441 3.367z"/><path d="M77.344 45.026v25.59c0 0.524 -0.425 0.949 -0.95 0.949H32.72c-0.524 0 -0.949 -0.425 -0.949 -0.949V45.026H77.344z" style="fill:#989faa"/><path style="fill:#7b838e" d="M77.344 45.026v1.899H31.771v-1.899z"/><path d="M32.72 35.532h43.674c0.524 0 0.95 0.425 0.95 0.949v8.545H31.771v-8.545c0 -0.524 0.425 -0.949 0.949 -0.949z" style="fill:#526072;fill-rule:nonzero"/><path style="fill:#ef5350;fill-rule:nonzero" d="M69.752 38.331v3.798h3.798v-3.798z"/><path style="fill:#ffab40;fill-rule:nonzero" d="M56.452 42.129h3.797v-3.798h-3.797z"/><path style="fill:#7cb342;fill-rule:nonzero" d="M63.092 38.331v3.798h3.798v-3.798z"/><path class="fil16" d="M60.696 63.539v-1.37h9.979v1.37zm-10.243 -1.892 6.433 -3.367 -6.433 -3.338v-1.889l8.123 4.329v1.773l-8.123 4.383zm-3.891 1.892 -8.123 -4.383v-1.773l8.123 -4.329v1.889l-6.441 3.338 6.441 3.367z"/></g></svg>